<svg width="91" height="91" viewBox="0 0 91 91" fill="none" xmlns="http://www.w3.org/2000/svg">
<path d="M1 45.5V1H36.5H67C82.5 1 90.5809 12.2273 90 25C88.6352 34.7296 80.5 45.5 67 45.5H36.5H1Z" fill="#059669"/>
<path d="M36.5 1C36.5 1 51.5 0.999999 67 1C82.5 1 90.5809 12.2273 90 25C88.6352 34.7296 80.5 45.5 67 45.5C53.5 45.5 36.5 45.5 36.5 45.5M36.5 1H1V45.5H36.5M36.5 1V45.5" stroke="#059669"/>
<path d="M1 90V45.5H36.5H67C82.5 45.5 90.5809 56.7273 90 69.5C88.6352 79.2296 80.5 90 67 90H36.5H1Z" fill="#059669"/>
<path d="M36.5 45.5C36.5 45.5 51.5 45.5 67 45.5C82.5 45.5 90.5809 56.7273 90 69.5C88.6352 79.2296 80.5 90 67 90C53.5 90 36.5 90 36.5 90M36.5 45.5H1V90H36.5M36.5 45.5V90" stroke="#059669"/>
</svg>
