<svg width="373" height="145" viewBox="0 0 373 145" fill="none" xmlns="http://www.w3.org/2000/svg">
<path d="M119.812 113.75C105.812 113.75 98.8125 106.484 98.8125 91.9531V63.7344C98.8125 57.1094 100.672 51.8281 104.391 47.8906C108.109 43.9219 113.25 41.9375 119.812 41.9375C126.406 41.9375 131.562 43.9219 135.281 47.8906C139 51.8281 140.859 57.1094 140.859 63.7344V91.9531C140.859 106.484 133.844 113.75 119.812 113.75ZM119.812 100.812C121.219 100.812 122.219 100.312 122.812 99.3125C123.438 98.2812 123.75 96.9844 123.75 95.4219V61.0625C123.75 56.9688 122.438 54.9219 119.812 54.9219C117.188 54.9219 115.875 56.9688 115.875 61.0625V95.4219C115.875 96.9844 116.172 98.2812 116.766 99.3125C117.391 100.312 118.406 100.812 119.812 100.812ZM167.531 113.75C153.531 113.75 146.531 106.484 146.531 91.9531V63.7344C146.531 57.1094 148.391 51.8281 152.109 47.8906C155.828 43.9219 160.969 41.9375 167.531 41.9375C174.125 41.9375 179.281 43.9219 183 47.8906C186.719 51.8281 188.578 57.1094 188.578 63.7344V91.9531C188.578 106.484 181.562 113.75 167.531 113.75ZM167.531 100.812C168.938 100.812 169.938 100.312 170.531 99.3125C171.156 98.2812 171.469 96.9844 171.469 95.4219V61.0625C171.469 56.9688 170.156 54.9219 167.531 54.9219C164.906 54.9219 163.594 56.9688 163.594 61.0625V95.4219C163.594 96.9844 163.891 98.2812 164.484 99.3125C165.109 100.312 166.125 100.812 167.531 100.812ZM215.25 113.75C201.25 113.75 194.25 106.484 194.25 91.9531V63.7344C194.25 57.1094 196.109 51.8281 199.828 47.8906C203.547 43.9219 208.688 41.9375 215.25 41.9375C221.844 41.9375 227 43.9219 230.719 47.8906C234.438 51.8281 236.297 57.1094 236.297 63.7344V91.9531C236.297 106.484 229.281 113.75 215.25 113.75ZM215.25 100.812C216.656 100.812 217.656 100.312 218.25 99.3125C218.875 98.2812 219.188 96.9844 219.188 95.4219V61.0625C219.188 56.9688 217.875 54.9219 215.25 54.9219C212.625 54.9219 211.312 56.9688 211.312 61.0625V95.4219C211.312 96.9844 211.609 98.2812 212.203 99.3125C212.828 100.312 213.844 100.812 215.25 100.812ZM242.531 113V42.6875H259.594V50.5156C260.406 47.7969 261.844 45.6719 263.906 44.1406C265.969 42.6094 268.562 41.8438 271.688 41.8438V55.8594C270.312 55.8594 268.672 56.0156 266.766 56.3281C264.859 56.6094 263.188 57.0156 261.75 57.5469C260.312 58.0469 259.594 58.6094 259.594 59.2344V113H242.531ZM295.5 113.75C290.5 113.75 286.516 112.812 283.547 110.938C280.578 109.062 278.453 106.359 277.172 102.828C275.891 99.2969 275.25 95.0469 275.25 90.0781V61.8125C275.25 55.2812 277.125 50.3438 280.875 47C284.625 43.625 289.781 41.9375 296.344 41.9375C309.844 41.9375 316.594 48.5625 316.594 61.8125V66.9219C316.594 73.1094 316.531 77.2656 316.406 79.3906H292.031V92.9844C292.031 94.2344 292.109 95.4688 292.266 96.6875C292.422 97.875 292.766 98.8594 293.297 99.6406C293.859 100.422 294.75 100.812 295.969 100.812C297.719 100.812 298.812 100.062 299.25 98.5625C299.688 97.0312 299.906 95.0469 299.906 92.6094V85.8594H316.594V89.8438C316.594 95.0938 315.938 99.5 314.625 103.062C313.344 106.594 311.156 109.266 308.062 111.078C305 112.859 300.812 113.75 295.5 113.75ZM291.938 71.0469H299.906V61.5781C299.906 59.0469 299.594 57.2344 298.969 56.1406C298.344 55.0156 297.406 54.4531 296.156 54.4531C294.812 54.4531 293.766 54.9844 293.016 56.0469C292.297 57.1094 291.938 58.9531 291.938 61.5781V71.0469ZM336.516 113.75C333.266 113.75 330.688 113.156 328.781 111.969C326.875 110.781 325.453 109.141 324.516 107.047C323.578 104.953 322.953 102.5 322.641 99.6875C322.359 96.875 322.219 93.8594 322.219 90.6406V60.0781C322.219 54.6719 323.172 50.2969 325.078 46.9531C327.016 43.6094 330.281 41.9375 334.875 41.9375C338.281 41.9375 340.891 42.6719 342.703 44.1406C344.547 45.5781 345.969 47.5938 346.969 50.1875V30.5H364.031V113H346.969V105.547C346.031 108.078 344.781 110.078 343.219 111.547C341.688 113.016 339.453 113.75 336.516 113.75ZM342.938 100.625C344.531 100.625 345.594 99.9844 346.125 98.7031C346.688 97.4219 346.969 95.125 346.969 91.8125V62.2344C346.969 60.5781 346.719 58.9531 346.219 57.3594C345.75 55.7344 344.688 54.9219 343.031 54.9219C341.219 54.9219 340.078 55.6875 339.609 57.2188C339.141 58.75 338.906 60.4219 338.906 62.2344V91.8125C338.906 97.6875 340.25 100.625 342.938 100.625Z" fill="#059669"/>
<path d="M1 68V23.5H36.5H67C82.5 23.5 90.5809 34.7273 90 47.5C88.6352 57.2296 80.5 68 67 68H36.5H1Z" fill="#059669"/>
<path d="M36.5 23.5C36.5 23.5 51.5 23.5 67 23.5C82.5 23.5 90.5809 34.7273 90 47.5C88.6352 57.2296 80.5 68 67 68C53.5 68 36.5 68 36.5 68M36.5 23.5H1V68H36.5M36.5 23.5V68" stroke="#059669"/>
<path d="M1 112.5V68H36.5H67C82.5 68 90.5809 79.2273 90 92C88.6352 101.73 80.5 112.5 67 112.5H36.5H1Z" fill="#059669"/>
<path d="M36.5 68C36.5 68 51.5 68 67 68C82.5 68 90.5809 79.2273 90 92C88.6352 101.73 80.5 112.5 67 112.5C53.5 112.5 36.5 112.5 36.5 112.5M36.5 68H1V112.5H36.5M36.5 68V112.5" stroke="#059669"/>
</svg>
